# xmcd
#
# Track frame offsets: 
#        150
#        17068
#        32746
#        49308
#        62098
#        75726
#        93901
#        109285
#        128093
#        146626
#        164228
#        179741
#
# Disc length: 2642 seconds
#
# Revision: 1
# Processed by: cddbd v1.5.2PL0 Copyright (c) Steve Scherf et al.
# Submitted via: ExactAudioCopy v1.0b3
#
DISCID=ad0a500c
DTITLE=Johnny Reid - Fire It Up
DYEAR=2012
DGENRE=Country
TTITLE0=Fire It Up
TTITLE1=Walking on Water (feat. Serena Ryder)
TTITLE2=Right Where I Belong
TTITLE3=Yeah It's All Right
TTITLE4=Let's Have a Party
TTITLE5=Dedicated to You
TTITLE6=Dancin' Shoes
TTITLE7=Baby I Know It (feat. Carolyn Dawn Johnson)
TTITLE8=Love of a Lifetime
TTITLE9=What Makes the World Go Around
TTITLE10=You Got Me
TTITLE11=Till We Meet Again
EXTD=YEAR: 2012
EXTT0=
EXTT1=
EXTT2=
EXTT3=
EXTT4=
EXTT5=
EXTT6=
EXTT7=
EXTT8=
EXTT9=
EXTT10=
EXTT11=
PLAYORDER=
